<?xml version="1.0" encoding="utf-8"?>
<!-- Generator: Adobe Illustrator 25.4.1, SVG Export Plug-In . SVG Version: 6.00 Build 0)  -->
<svg version="1.1" id="Layer_1" xmlns="http://www.w3.org/2000/svg" xmlns:xlink="http://www.w3.org/1999/xlink" x="0px" y="0px"
	 viewBox="0 0 114 126" style="enable-background:new 0 0 114 126;" xml:space="preserve">
<style type="text/css">
	.st0{fill:#00B0A4;}
	.st1{fill:#FFFFFF;}
	.st2{fill:#00B0A4;stroke:#00B0A4;stroke-width:2;stroke-miterlimit:10;}
</style>
<g>
	<path class="st0" d="M110.85,48.21c-4.54-6.92-15.33-15.11-20.33-8.52c-12.28,16.17-23.53,29.2-33.73,39.08
		c-14.98,14.72-33.37,28.46-55.15,41.23C1.61,120,1.58,120.01,1.55,120l-4.85-0.8C25.89,94.65,45.95,75.83,56.9,62.75
		C73.32,42.67,87.38,26.58,93.46,0.5c1.63-6.99,7.88-9.49,13.88-5.56l0,0c6.24,4.17,5.17,7.15,4.54,11.02
		c-0.29,1.79-2.03,5.41-4.19,8.18c-3.32,4.24,0.67,9.83,3.8,14.21"/>
	<g>
		<g>
			<path class="st0" d="M49.95,78.13c0-8.92-5.92-14.46-23.31-18.75c-16.72-4.17-23.95-9.6-23.95-21c0-10.39,7.57-20.1,24.51-20.1
				c17.39,0,24.74,10.61,25.75,20.21h-6.33c-1.81-8.47-7.34-14.57-19.76-14.57c-11.41,0-17.62,5.31-17.62,14.12
				c0,8.69,5.2,12.08,19.76,15.7c22.25,5.54,25.52,14.46,25.52,23.95"/>
		</g>
	</g>
	<path class="st1" d="M36.47,63.52c0,0,16.42,6.72,15,16.91c-1.05,7.57-1.73,9.84-5.97,12.82s-4.94,5.75-7.58,4.45
		S26.78,81.62,26.78,81.62L36.47,63.52z"/>
	<path class="st0" d="M104.88,58.95l-3.79,3.39c-0.68,0.61-1.73,0.55-2.34-0.13l-8.64-9.67c-0.61-0.68-0.55-1.73,0.13-2.34
		l3.79-3.39c0.68-0.61,1.73-0.55,2.34,0.13l8.64,9.67C105.62,57.3,105.56,58.34,104.88,58.95z"/>
	<path class="st1" d="M116.08-22.19c-2.93-1.73-8.59-2.46-8.59-2.46s-1.89,0.63-9.22,3.98s-7.97,4.4-10.69,8.8
		c-2.73,4.4-4.61,9.64-5.87,13.48c-1.26,3.83-6.5,17.55-6.5,17.55L76.88,33c0,0-1.56-5.02,5.86-3.6c9.97,1.92,12.8,7.37,12.8,7.37
		l6.53,8.6l14.98,6.46c0,0,2.04-10.75,1.19-12.23s-1.78-12.23-1.96-13.53c-0.19-1.3-0.56-5.75-1.85-5.75"/>
	<g>
		<path class="st2" d="M88.39,28.68c1.45-2.7,0.56-5.34-4-9.47c-4.38-3.99-5.68-6.8-3.82-10.25c1.69-3.14,5.56-4.85,10.69-2.09
			c5.26,2.83,5.75,7.24,4.5,10.31l-1.91-1.03c0.83-2.86,0.15-5.6-3.6-7.62c-3.45-1.86-6.19-1.26-7.63,1.4
			c-1.42,2.63-0.4,4.5,3.42,7.97c5.83,5.3,5.36,8.53,3.82,11.4"/>
	</g>
	<path class="st1" d="M28.53,80.78c0,0,21.17,15.53,20.23,28.45c-0.94,12.93-51.7,21.73-51.7,21.73l-4.31-12.55l26.79-29.04
		L28.53,80.78z"/>
	<g>
		<g>
			<path class="st0" d="M21.85,111.23c-0.03,0.12-0.09,0.21-0.15,0.29s-0.16,0.13-0.28,0.17s-0.27,0.07-0.44,0.08
				c-0.17,0.02-0.39,0.03-0.64,0.03c-0.26,0-0.49-0.01-0.67-0.03c-0.18-0.02-0.33-0.04-0.45-0.08s-0.21-0.09-0.27-0.17
				c-0.06-0.07-0.11-0.17-0.14-0.29l-3.46-12.47h-0.03l-3.19,12.47c-0.03,0.12-0.07,0.21-0.13,0.29s-0.14,0.13-0.26,0.17
				s-0.25,0.07-0.43,0.08c-0.17,0.02-0.4,0.03-0.67,0.03c-0.28,0-0.51-0.01-0.7-0.03c-0.19-0.02-0.34-0.04-0.46-0.08
				s-0.21-0.09-0.27-0.17c-0.06-0.07-0.11-0.17-0.13-0.29L4.71,95.98c-0.05-0.2-0.08-0.35-0.08-0.46c0-0.11,0.03-0.2,0.1-0.26
				s0.19-0.1,0.35-0.11c0.16-0.02,0.38-0.03,0.65-0.03c0.26,0,0.47,0.01,0.63,0.02s0.27,0.04,0.35,0.07
				c0.08,0.03,0.14,0.08,0.17,0.14c0.03,0.06,0.05,0.14,0.07,0.23l3.71,13.83h0.01l3.52-13.81c0.03-0.09,0.06-0.17,0.1-0.24
				c0.04-0.06,0.1-0.11,0.19-0.15c0.09-0.03,0.21-0.06,0.36-0.08c0.16-0.02,0.36-0.03,0.62-0.03c0.24,0,0.43,0.01,0.57,0.03
				c0.14,0.02,0.25,0.04,0.34,0.08c0.09,0.03,0.15,0.08,0.19,0.15c0.04,0.06,0.07,0.14,0.1,0.24l3.79,13.81h0.03l3.64-13.82
				c0.03-0.09,0.05-0.16,0.08-0.22c0.03-0.06,0.08-0.11,0.16-0.15c0.08-0.03,0.2-0.06,0.34-0.08c0.15-0.02,0.35-0.03,0.59-0.03
				c0.26,0,0.46,0.01,0.61,0.03s0.26,0.06,0.33,0.12s0.1,0.14,0.1,0.26c0,0.11-0.03,0.26-0.07,0.46L21.85,111.23z"/>
			<path class="st0" d="M31.4,96.03c0,0.49-0.09,0.83-0.28,1.01c-0.19,0.18-0.53,0.27-1.03,0.27c-0.49,0-0.83-0.09-1.01-0.26
				c-0.18-0.17-0.27-0.5-0.27-0.99c0-0.49,0.09-0.83,0.28-1.01s0.53-0.27,1.03-0.27c0.49,0,0.83,0.09,1.01,0.26
				S31.4,95.54,31.4,96.03z M31.15,111.39c0,0.07-0.02,0.13-0.05,0.17s-0.09,0.09-0.17,0.12c-0.08,0.03-0.18,0.06-0.32,0.08
				c-0.14,0.02-0.31,0.03-0.52,0.03c-0.2,0-0.37-0.01-0.51-0.03c-0.14-0.02-0.24-0.04-0.33-0.08c-0.08-0.03-0.14-0.07-0.17-0.12
				s-0.04-0.1-0.04-0.17V99.91c0-0.06,0.01-0.11,0.04-0.17s0.09-0.09,0.17-0.13c0.08-0.03,0.19-0.06,0.33-0.08s0.31-0.03,0.51-0.03
				c0.21,0,0.39,0.01,0.52,0.03s0.24,0.04,0.32,0.08c0.08,0.03,0.13,0.08,0.17,0.13s0.05,0.11,0.05,0.17V111.39z"/>
			<path class="st0" d="M42.26,108.27c0,0.59-0.11,1.11-0.33,1.57c-0.22,0.46-0.53,0.85-0.93,1.16c-0.4,0.31-0.88,0.55-1.43,0.71
				c-0.55,0.16-1.16,0.24-1.82,0.24c-0.41,0-0.8-0.03-1.17-0.1c-0.37-0.06-0.7-0.14-1-0.24c-0.29-0.1-0.54-0.2-0.75-0.31
				s-0.35-0.2-0.45-0.29c-0.09-0.09-0.16-0.2-0.2-0.36c-0.04-0.15-0.06-0.36-0.06-0.63c0-0.16,0.01-0.3,0.03-0.41
				c0.02-0.11,0.04-0.2,0.06-0.27c0.03-0.07,0.06-0.12,0.11-0.15s0.1-0.04,0.16-0.04c0.09,0,0.23,0.06,0.41,0.17
				s0.41,0.24,0.68,0.38s0.58,0.26,0.95,0.38s0.79,0.17,1.26,0.17c0.36,0,0.68-0.04,0.97-0.11c0.29-0.08,0.54-0.19,0.75-0.34
				c0.21-0.15,0.38-0.34,0.49-0.57s0.17-0.5,0.17-0.82c0-0.32-0.08-0.6-0.25-0.82s-0.38-0.42-0.66-0.59
				c-0.27-0.17-0.58-0.32-0.92-0.45s-0.69-0.27-1.05-0.41c-0.36-0.14-0.71-0.31-1.06-0.49s-0.65-0.41-0.93-0.67
				s-0.49-0.58-0.66-0.94c-0.17-0.37-0.25-0.8-0.25-1.31c0-0.45,0.09-0.88,0.26-1.3c0.17-0.41,0.44-0.77,0.78-1.08
				s0.78-0.56,1.31-0.75c0.52-0.19,1.13-0.28,1.83-0.28c0.31,0,0.61,0.03,0.92,0.08s0.58,0.11,0.83,0.19
				c0.25,0.08,0.46,0.16,0.63,0.25s0.31,0.17,0.4,0.24s0.15,0.13,0.18,0.18s0.05,0.11,0.06,0.17c0.01,0.06,0.03,0.14,0.04,0.24
				c0.01,0.09,0.02,0.21,0.02,0.34c0,0.14-0.01,0.27-0.02,0.38c-0.01,0.11-0.03,0.19-0.06,0.26s-0.07,0.12-0.11,0.15
				c-0.04,0.03-0.09,0.04-0.14,0.04c-0.08,0-0.19-0.05-0.33-0.14c-0.14-0.09-0.33-0.19-0.56-0.3c-0.23-0.11-0.5-0.21-0.81-0.3
				c-0.31-0.09-0.67-0.14-1.07-0.14c-0.36,0-0.67,0.04-0.94,0.12c-0.27,0.08-0.5,0.2-0.67,0.34s-0.31,0.33-0.4,0.53
				c-0.09,0.2-0.13,0.43-0.13,0.66c0,0.33,0.09,0.61,0.26,0.84s0.39,0.42,0.66,0.59c0.27,0.17,0.58,0.32,0.93,0.46
				c0.35,0.14,0.7,0.28,1.07,0.42c0.36,0.14,0.72,0.31,1.07,0.48c0.35,0.18,0.67,0.4,0.94,0.65s0.49,0.56,0.66,0.92
				C42.17,107.35,42.26,107.77,42.26,108.27z"/>
			<path class="st0" d="M52.48,108.27c0,0.59-0.11,1.11-0.33,1.57c-0.22,0.46-0.53,0.85-0.93,1.16c-0.4,0.31-0.88,0.55-1.43,0.71
				c-0.55,0.16-1.16,0.24-1.82,0.24c-0.41,0-0.8-0.03-1.17-0.1c-0.37-0.06-0.7-0.14-1-0.24c-0.29-0.1-0.54-0.2-0.75-0.31
				s-0.35-0.2-0.45-0.29c-0.09-0.09-0.16-0.2-0.2-0.36c-0.04-0.15-0.06-0.36-0.06-0.63c0-0.16,0.01-0.3,0.03-0.41
				c0.02-0.11,0.04-0.2,0.06-0.27c0.03-0.07,0.06-0.12,0.11-0.15c0.05-0.03,0.1-0.04,0.16-0.04c0.09,0,0.23,0.06,0.41,0.17
				c0.18,0.11,0.41,0.24,0.68,0.38s0.58,0.26,0.95,0.38c0.37,0.11,0.79,0.17,1.26,0.17c0.36,0,0.68-0.04,0.97-0.11
				c0.29-0.08,0.54-0.19,0.75-0.34c0.21-0.15,0.38-0.34,0.49-0.57s0.17-0.5,0.17-0.82c0-0.32-0.08-0.6-0.25-0.82
				s-0.38-0.42-0.66-0.59c-0.27-0.17-0.58-0.32-0.92-0.45s-0.69-0.27-1.05-0.41c-0.36-0.14-0.71-0.31-1.06-0.49
				c-0.34-0.18-0.65-0.41-0.93-0.67s-0.49-0.58-0.66-0.94c-0.17-0.37-0.25-0.8-0.25-1.31c0-0.45,0.09-0.88,0.26-1.3
				c0.17-0.41,0.44-0.77,0.78-1.08s0.78-0.56,1.31-0.75s1.13-0.28,1.83-0.28c0.31,0,0.61,0.03,0.92,0.08s0.58,0.11,0.83,0.19
				c0.25,0.08,0.46,0.16,0.63,0.25c0.17,0.09,0.31,0.17,0.4,0.24c0.09,0.07,0.15,0.13,0.18,0.18c0.03,0.05,0.05,0.11,0.06,0.17
				c0.01,0.06,0.03,0.14,0.04,0.24c0.01,0.09,0.02,0.21,0.02,0.34c0,0.14-0.01,0.27-0.02,0.38c-0.01,0.11-0.03,0.19-0.06,0.26
				c-0.03,0.07-0.07,0.12-0.11,0.15s-0.09,0.04-0.14,0.04c-0.08,0-0.19-0.05-0.33-0.14c-0.14-0.09-0.33-0.19-0.56-0.3
				c-0.23-0.11-0.5-0.21-0.81-0.3c-0.31-0.09-0.67-0.14-1.07-0.14c-0.36,0-0.67,0.04-0.94,0.12c-0.27,0.08-0.5,0.2-0.67,0.34
				c-0.17,0.15-0.31,0.33-0.4,0.53s-0.13,0.43-0.13,0.66c0,0.33,0.09,0.61,0.26,0.84s0.39,0.42,0.66,0.59
				c0.27,0.17,0.58,0.32,0.93,0.46s0.7,0.28,1.07,0.42c0.36,0.14,0.72,0.31,1.07,0.48c0.35,0.18,0.67,0.4,0.94,0.65
				s0.49,0.56,0.66,0.92C52.4,107.35,52.48,107.77,52.48,108.27z"/>
			<path class="st0" d="M65.29,105.15c0,0.33-0.08,0.57-0.25,0.71c-0.17,0.14-0.36,0.21-0.57,0.21h-7.56c0,0.64,0.06,1.21,0.19,1.72
				c0.13,0.51,0.34,0.95,0.64,1.31c0.3,0.37,0.69,0.65,1.17,0.84c0.48,0.2,1.06,0.29,1.76,0.29c0.55,0,1.03-0.04,1.46-0.13
				c0.43-0.09,0.8-0.19,1.11-0.3c0.31-0.11,0.57-0.21,0.77-0.3c0.2-0.09,0.35-0.13,0.46-0.13c0.06,0,0.11,0.01,0.16,0.04
				c0.05,0.03,0.08,0.07,0.11,0.13c0.03,0.06,0.04,0.14,0.06,0.25s0.02,0.24,0.02,0.39c0,0.11,0,0.21-0.01,0.29
				c-0.01,0.08-0.02,0.15-0.03,0.22c-0.01,0.06-0.03,0.12-0.06,0.17c-0.03,0.05-0.07,0.1-0.11,0.15s-0.19,0.12-0.41,0.23
				c-0.23,0.11-0.53,0.21-0.89,0.31c-0.37,0.1-0.79,0.19-1.27,0.27c-0.48,0.08-0.99,0.12-1.54,0.12c-0.94,0-1.77-0.13-2.48-0.4
				c-0.71-0.26-1.31-0.66-1.79-1.17c-0.48-0.52-0.85-1.17-1.1-1.95c-0.25-0.78-0.37-1.69-0.37-2.73c0-0.99,0.13-1.87,0.38-2.66
				c0.26-0.79,0.62-1.45,1.1-2c0.48-0.55,1.06-0.97,1.74-1.26c0.68-0.29,1.44-0.44,2.28-0.44c0.9,0,1.67,0.14,2.3,0.43
				c0.63,0.29,1.15,0.68,1.56,1.17c0.41,0.49,0.71,1.06,0.9,1.72c0.19,0.66,0.29,1.36,0.29,2.11V105.15z M63.17,104.53
				c0.03-1.11-0.22-1.97-0.74-2.6c-0.52-0.63-1.29-0.94-2.3-0.94c-0.52,0-0.98,0.1-1.37,0.29c-0.39,0.2-0.72,0.46-0.99,0.78
				c-0.27,0.32-0.47,0.7-0.62,1.13s-0.23,0.88-0.24,1.35H63.17z"/>
			<path class="st0" d="M85.53,111.39c0,0.07-0.02,0.13-0.05,0.17c-0.03,0.05-0.09,0.09-0.17,0.12c-0.08,0.03-0.18,0.06-0.32,0.08
				c-0.14,0.02-0.31,0.03-0.51,0.03c-0.21,0-0.39-0.01-0.52-0.03c-0.14-0.02-0.24-0.04-0.33-0.08c-0.08-0.03-0.14-0.07-0.17-0.12
				c-0.03-0.05-0.05-0.1-0.05-0.17v-6.98c0-0.48-0.04-0.93-0.13-1.33c-0.09-0.4-0.22-0.74-0.41-1.03c-0.19-0.29-0.43-0.51-0.71-0.66
				c-0.29-0.15-0.63-0.23-1.02-0.23c-0.48,0-0.97,0.19-1.46,0.56c-0.49,0.37-1.03,0.92-1.61,1.65v8.03c0,0.07-0.02,0.13-0.05,0.17
				c-0.03,0.05-0.09,0.09-0.17,0.12c-0.08,0.03-0.19,0.06-0.33,0.08c-0.14,0.02-0.31,0.03-0.51,0.03c-0.2,0-0.36-0.01-0.5-0.03
				c-0.14-0.02-0.25-0.04-0.33-0.08c-0.08-0.03-0.14-0.07-0.17-0.12s-0.04-0.1-0.04-0.17v-6.98c0-0.48-0.05-0.93-0.14-1.33
				c-0.09-0.4-0.23-0.74-0.42-1.03c-0.19-0.29-0.42-0.51-0.71-0.66c-0.29-0.15-0.62-0.23-1.01-0.23c-0.48,0-0.97,0.19-1.47,0.56
				c-0.49,0.37-1.03,0.92-1.61,1.65v8.03c0,0.07-0.02,0.13-0.05,0.17c-0.03,0.05-0.09,0.09-0.17,0.12
				c-0.08,0.03-0.18,0.06-0.32,0.08c-0.14,0.02-0.31,0.03-0.52,0.03c-0.2,0-0.37-0.01-0.51-0.03c-0.14-0.02-0.24-0.04-0.33-0.08
				c-0.08-0.03-0.14-0.07-0.17-0.12s-0.04-0.1-0.04-0.17V99.91c0-0.07,0.01-0.13,0.04-0.17c0.03-0.05,0.08-0.09,0.15-0.13
				s0.17-0.06,0.29-0.08c0.12-0.01,0.28-0.02,0.47-0.02c0.19,0,0.34,0.01,0.47,0.02c0.12,0.01,0.22,0.04,0.29,0.08
				s0.12,0.08,0.15,0.13c0.03,0.05,0.04,0.1,0.04,0.17v1.52c0.65-0.72,1.27-1.25,1.88-1.59c0.61-0.34,1.22-0.5,1.84-0.5
				c0.48,0,0.9,0.06,1.28,0.17c0.38,0.11,0.71,0.27,1,0.47s0.54,0.44,0.74,0.71c0.2,0.28,0.37,0.58,0.51,0.93
				c0.38-0.42,0.75-0.77,1.09-1.06c0.34-0.29,0.68-0.52,1-0.7c0.32-0.18,0.63-0.31,0.93-0.39c0.3-0.08,0.61-0.12,0.91-0.12
				c0.74,0,1.36,0.13,1.86,0.39c0.5,0.26,0.91,0.61,1.22,1.04s0.53,0.94,0.66,1.53c0.13,0.58,0.2,1.2,0.2,1.84V111.39z"/>
			<path class="st0" d="M100.05,105.52c0,0.94-0.12,1.8-0.37,2.58c-0.25,0.79-0.61,1.47-1.1,2.04c-0.49,0.57-1.1,1.01-1.84,1.33
				s-1.59,0.48-2.56,0.48c-0.94,0-1.77-0.14-2.47-0.42c-0.7-0.28-1.29-0.69-1.75-1.23s-0.82-1.19-1.05-1.95
				c-0.23-0.77-0.34-1.63-0.34-2.6c0-0.94,0.12-1.8,0.36-2.58c0.24-0.79,0.61-1.47,1.1-2.04c0.49-0.57,1.1-1.01,1.83-1.33
				c0.73-0.31,1.59-0.47,2.57-0.47c0.94,0,1.77,0.14,2.47,0.42c0.7,0.28,1.29,0.69,1.75,1.23c0.47,0.54,0.82,1.19,1.05,1.95
				S100.05,104.56,100.05,105.52z M97.87,105.66c0-0.62-0.06-1.21-0.17-1.76s-0.31-1.04-0.57-1.45c-0.27-0.42-0.63-0.75-1.08-0.99
				c-0.45-0.24-1.02-0.36-1.7-0.36c-0.63,0-1.17,0.11-1.62,0.33c-0.45,0.22-0.82,0.53-1.11,0.94c-0.29,0.4-0.51,0.88-0.65,1.44
				c-0.14,0.55-0.21,1.16-0.21,1.81c0,0.63,0.06,1.22,0.17,1.77c0.11,0.55,0.31,1.04,0.58,1.45c0.27,0.41,0.63,0.74,1.09,0.98
				c0.46,0.24,1.02,0.36,1.7,0.36c0.62,0,1.15-0.11,1.61-0.33c0.46-0.22,0.83-0.53,1.12-0.93c0.29-0.4,0.51-0.88,0.64-1.43
				C97.8,106.94,97.87,106.33,97.87,105.66z"/>
			<path class="st0" d="M111.35,111.15c0.07,0.12,0.1,0.22,0.1,0.3c0,0.08-0.04,0.15-0.12,0.2c-0.08,0.05-0.2,0.09-0.37,0.11
				c-0.17,0.02-0.38,0.03-0.64,0.03c-0.26,0-0.46-0.01-0.61-0.02c-0.15-0.01-0.27-0.03-0.36-0.06s-0.16-0.07-0.2-0.11
				s-0.09-0.1-0.12-0.16l-2.76-4.56l-2.74,4.56c-0.03,0.06-0.08,0.11-0.12,0.16c-0.05,0.05-0.11,0.09-0.2,0.11
				c-0.09,0.03-0.2,0.05-0.35,0.06c-0.14,0.01-0.34,0.02-0.57,0.02c-0.25,0-0.45-0.01-0.61-0.03s-0.27-0.06-0.34-0.11
				c-0.07-0.05-0.11-0.12-0.1-0.2c0-0.08,0.04-0.18,0.12-0.3l3.57-5.6l-3.38-5.4c-0.07-0.12-0.11-0.22-0.11-0.3
				c0-0.08,0.03-0.15,0.11-0.2c0.08-0.06,0.2-0.09,0.37-0.11s0.39-0.03,0.66-0.03c0.25,0,0.44,0.01,0.59,0.02
				c0.15,0.01,0.27,0.03,0.35,0.06c0.09,0.03,0.15,0.06,0.19,0.1c0.04,0.04,0.08,0.09,0.11,0.15l2.62,4.28l2.65-4.28
				c0.03-0.05,0.07-0.1,0.11-0.14c0.04-0.04,0.1-0.08,0.17-0.11c0.07-0.03,0.17-0.05,0.31-0.06c0.13-0.01,0.31-0.02,0.54-0.02
				c0.25,0,0.45,0.01,0.6,0.03c0.16,0.02,0.28,0.05,0.35,0.1s0.11,0.11,0.1,0.2c-0.01,0.09-0.05,0.19-0.13,0.32l-3.36,5.33
				L111.35,111.15z"/>
		</g>
	</g>
	<g>
		<path class="st0" d="M95.13,117.73c0,0.06,0,0.11-0.01,0.16c-0.01,0.04-0.02,0.08-0.03,0.11c-0.01,0.03-0.03,0.05-0.05,0.06
			c-0.02,0.01-0.04,0.02-0.07,0.02h-1.73v5.33c0,0.03-0.01,0.05-0.02,0.07c-0.01,0.02-0.04,0.03-0.07,0.05
			c-0.03,0.01-0.07,0.02-0.13,0.03c-0.05,0.01-0.12,0.01-0.2,0.01c-0.08,0-0.14,0-0.2-0.01c-0.05-0.01-0.1-0.02-0.13-0.03
			c-0.03-0.01-0.05-0.03-0.07-0.05c-0.01-0.02-0.02-0.04-0.02-0.07v-5.33h-1.73c-0.03,0-0.05-0.01-0.07-0.02
			c-0.02-0.01-0.04-0.03-0.05-0.06c-0.01-0.03-0.02-0.06-0.03-0.11c-0.01-0.04-0.01-0.1-0.01-0.16c0-0.06,0-0.11,0.01-0.16
			c0.01-0.05,0.02-0.08,0.03-0.11c0.01-0.03,0.03-0.05,0.05-0.06c0.02-0.01,0.04-0.02,0.07-0.02h4.27c0.03,0,0.05,0.01,0.07,0.02
			s0.04,0.03,0.05,0.06c0.01,0.03,0.02,0.07,0.03,0.11C95.12,117.62,95.13,117.67,95.13,117.73z"/>
		<path class="st0" d="M97.88,122.24c0,0.22-0.04,0.41-0.12,0.58c-0.08,0.17-0.2,0.32-0.34,0.43s-0.33,0.21-0.53,0.27
			c-0.21,0.06-0.43,0.09-0.68,0.09c-0.15,0-0.3-0.01-0.43-0.04c-0.14-0.02-0.26-0.05-0.37-0.09c-0.11-0.04-0.2-0.07-0.28-0.11
			c-0.08-0.04-0.13-0.07-0.17-0.11c-0.04-0.03-0.06-0.08-0.08-0.13c-0.02-0.06-0.02-0.14-0.02-0.23c0-0.06,0-0.11,0.01-0.15
			c0.01-0.04,0.01-0.07,0.02-0.1c0.01-0.03,0.02-0.04,0.04-0.05c0.02-0.01,0.04-0.02,0.06-0.02c0.04,0,0.09,0.02,0.15,0.06
			c0.07,0.04,0.15,0.09,0.25,0.14c0.1,0.05,0.22,0.1,0.35,0.14c0.14,0.04,0.29,0.06,0.47,0.06c0.13,0,0.25-0.01,0.36-0.04
			c0.11-0.03,0.2-0.07,0.28-0.13c0.08-0.06,0.14-0.13,0.18-0.21c0.04-0.09,0.06-0.19,0.06-0.3c0-0.12-0.03-0.22-0.09-0.3
			c-0.06-0.08-0.14-0.15-0.24-0.22c-0.1-0.06-0.22-0.12-0.34-0.17c-0.13-0.05-0.26-0.1-0.39-0.15c-0.14-0.05-0.27-0.11-0.39-0.18
			c-0.13-0.07-0.24-0.15-0.34-0.25s-0.18-0.22-0.24-0.35s-0.09-0.3-0.09-0.49c0-0.17,0.03-0.33,0.1-0.48
			c0.06-0.15,0.16-0.29,0.29-0.4c0.13-0.11,0.29-0.21,0.49-0.28c0.19-0.07,0.42-0.1,0.68-0.1c0.11,0,0.23,0.01,0.34,0.03
			c0.11,0.02,0.22,0.04,0.31,0.07c0.09,0.03,0.17,0.06,0.24,0.09s0.11,0.06,0.15,0.09c0.03,0.03,0.06,0.05,0.07,0.07
			c0.01,0.02,0.02,0.04,0.02,0.06c0.01,0.02,0.01,0.05,0.01,0.09c0.01,0.04,0.01,0.08,0.01,0.13c0,0.05,0,0.1-0.01,0.14
			c0,0.04-0.01,0.07-0.02,0.1c-0.01,0.03-0.02,0.04-0.04,0.05c-0.02,0.01-0.03,0.02-0.05,0.02c-0.03,0-0.07-0.02-0.12-0.05
			c-0.05-0.04-0.12-0.07-0.21-0.11c-0.09-0.04-0.19-0.08-0.3-0.11c-0.12-0.04-0.25-0.05-0.4-0.05c-0.13,0-0.25,0.01-0.35,0.04
			c-0.1,0.03-0.18,0.07-0.25,0.13c-0.06,0.06-0.11,0.12-0.15,0.2c-0.03,0.08-0.05,0.16-0.05,0.25c0,0.12,0.03,0.23,0.09,0.31
			c0.06,0.08,0.15,0.16,0.25,0.22c0.1,0.06,0.22,0.12,0.35,0.17c0.13,0.05,0.26,0.1,0.4,0.16c0.14,0.05,0.27,0.11,0.4,0.18
			c0.13,0.07,0.25,0.15,0.35,0.24c0.1,0.09,0.18,0.21,0.24,0.34C97.85,121.9,97.88,122.06,97.88,122.24z"/>
		<path class="st0" d="M102.68,123.41c0,0.03-0.01,0.05-0.02,0.06c-0.01,0.02-0.03,0.03-0.06,0.04c-0.03,0.01-0.07,0.02-0.12,0.03
			c-0.05,0.01-0.11,0.01-0.19,0.01c-0.08,0-0.14,0-0.19-0.01c-0.05-0.01-0.09-0.02-0.12-0.03c-0.03-0.01-0.05-0.03-0.06-0.04
			c-0.01-0.02-0.02-0.04-0.02-0.06v-2.5c0-0.24-0.02-0.44-0.06-0.59c-0.04-0.15-0.09-0.28-0.17-0.38c-0.07-0.11-0.17-0.19-0.28-0.25
			s-0.25-0.09-0.4-0.09c-0.2,0-0.39,0.07-0.59,0.21c-0.2,0.14-0.4,0.34-0.62,0.61v2.99c0,0.03-0.01,0.05-0.02,0.06
			c-0.01,0.02-0.03,0.03-0.06,0.04c-0.03,0.01-0.07,0.02-0.12,0.03c-0.05,0.01-0.12,0.01-0.19,0.01c-0.08,0-0.14,0-0.19-0.01
			c-0.05-0.01-0.09-0.02-0.12-0.03s-0.05-0.03-0.06-0.04c-0.01-0.02-0.02-0.04-0.02-0.06v-6.34c0-0.03,0.01-0.05,0.02-0.07
			c0.01-0.02,0.03-0.03,0.06-0.05c0.03-0.01,0.07-0.02,0.12-0.03c0.05-0.01,0.11-0.01,0.19-0.01c0.08,0,0.14,0,0.19,0.01
			c0.05,0.01,0.09,0.02,0.12,0.03c0.03,0.01,0.05,0.03,0.06,0.05c0.01,0.02,0.02,0.04,0.02,0.07v2.56c0.23-0.24,0.45-0.41,0.68-0.53
			c0.23-0.12,0.46-0.17,0.69-0.17c0.29,0,0.53,0.05,0.72,0.14c0.19,0.1,0.35,0.23,0.47,0.39c0.12,0.16,0.21,0.35,0.26,0.57
			c0.05,0.22,0.08,0.48,0.08,0.79V123.41z"/>
		<path class="st0" d="M104.99,117.69c0,0.18-0.04,0.31-0.1,0.38c-0.07,0.07-0.2,0.1-0.38,0.1c-0.18,0-0.31-0.03-0.38-0.1
			s-0.1-0.19-0.1-0.37c0-0.18,0.04-0.31,0.1-0.38c0.07-0.07,0.2-0.1,0.38-0.1c0.18,0,0.31,0.03,0.38,0.1
			S104.99,117.51,104.99,117.69z M104.89,123.41c0,0.03-0.01,0.05-0.02,0.06c-0.01,0.02-0.03,0.03-0.06,0.04
			c-0.03,0.01-0.07,0.02-0.12,0.03c-0.05,0.01-0.12,0.01-0.19,0.01c-0.08,0-0.14,0-0.19-0.01c-0.05-0.01-0.09-0.02-0.12-0.03
			s-0.05-0.03-0.06-0.04c-0.01-0.02-0.02-0.04-0.02-0.06v-4.27c0-0.02,0.01-0.04,0.02-0.06c0.01-0.02,0.03-0.04,0.06-0.05
			c0.03-0.01,0.07-0.02,0.12-0.03c0.05-0.01,0.11-0.01,0.19-0.01c0.08,0,0.14,0,0.19,0.01c0.05,0.01,0.09,0.02,0.12,0.03
			c0.03,0.01,0.05,0.03,0.06,0.05c0.01,0.02,0.02,0.04,0.02,0.06V123.41z"/>
		<path class="st0" d="M108.84,119.41c0,0.07,0,0.13,0,0.18c0,0.05-0.01,0.08-0.02,0.11c-0.01,0.03-0.02,0.05-0.04,0.06
			c-0.01,0.01-0.03,0.02-0.06,0.02c-0.03,0-0.06-0.01-0.09-0.02c-0.04-0.01-0.08-0.03-0.12-0.04c-0.05-0.01-0.1-0.03-0.16-0.04
			c-0.06-0.01-0.12-0.02-0.19-0.02c-0.08,0-0.16,0.02-0.23,0.05c-0.08,0.03-0.16,0.08-0.24,0.16c-0.08,0.07-0.17,0.17-0.26,0.29
			c-0.09,0.12-0.19,0.27-0.3,0.44v2.81c0,0.03-0.01,0.05-0.02,0.06c-0.01,0.02-0.03,0.03-0.06,0.04c-0.03,0.01-0.07,0.02-0.12,0.03
			c-0.05,0.01-0.12,0.01-0.19,0.01c-0.08,0-0.14,0-0.19-0.01c-0.05-0.01-0.09-0.02-0.12-0.03s-0.05-0.03-0.06-0.04
			c-0.01-0.02-0.02-0.04-0.02-0.06v-4.27c0-0.03,0.01-0.05,0.01-0.06c0.01-0.02,0.03-0.03,0.06-0.05c0.03-0.01,0.06-0.02,0.11-0.03
			c0.04,0,0.1-0.01,0.18-0.01c0.07,0,0.13,0,0.17,0.01c0.05,0.01,0.08,0.01,0.11,0.03c0.03,0.01,0.04,0.03,0.05,0.05
			c0.01,0.02,0.02,0.04,0.02,0.06v0.62c0.12-0.17,0.23-0.31,0.33-0.42c0.1-0.11,0.2-0.19,0.29-0.25c0.09-0.06,0.18-0.1,0.27-0.13
			c0.09-0.02,0.18-0.04,0.27-0.04c0.04,0,0.09,0,0.14,0.01c0.05,0,0.11,0.01,0.16,0.03c0.06,0.01,0.11,0.03,0.15,0.04
			c0.05,0.02,0.08,0.03,0.1,0.05c0.02,0.02,0.03,0.03,0.04,0.05c0.01,0.01,0.01,0.03,0.02,0.05c0.01,0.02,0.01,0.05,0.01,0.1
			C108.84,119.28,108.84,119.34,108.84,119.41z"/>
		<path class="st0" d="M111.96,123.1c0,0.09-0.01,0.16-0.02,0.22c-0.01,0.05-0.03,0.09-0.06,0.12c-0.03,0.03-0.06,0.05-0.11,0.07
			c-0.05,0.02-0.11,0.04-0.17,0.05s-0.13,0.03-0.21,0.04c-0.07,0.01-0.15,0.01-0.22,0.01c-0.22,0-0.41-0.03-0.57-0.09
			c-0.16-0.06-0.29-0.15-0.39-0.27c-0.1-0.12-0.18-0.27-0.22-0.45c-0.05-0.18-0.07-0.4-0.07-0.64v-2.5h-0.6
			c-0.05,0-0.09-0.03-0.11-0.08c-0.03-0.05-0.04-0.13-0.04-0.25c0-0.06,0-0.11,0.01-0.15c0.01-0.04,0.02-0.08,0.03-0.1
			c0.01-0.03,0.03-0.05,0.05-0.06c0.02-0.01,0.04-0.02,0.07-0.02h0.59v-1.02c0-0.02,0.01-0.04,0.02-0.06
			c0.01-0.02,0.03-0.04,0.06-0.05c0.03-0.01,0.07-0.02,0.12-0.03c0.05-0.01,0.11-0.01,0.19-0.01c0.08,0,0.14,0,0.19,0.01
			c0.05,0.01,0.09,0.02,0.12,0.03c0.03,0.01,0.05,0.03,0.06,0.05c0.01,0.02,0.02,0.04,0.02,0.06v1.02h1.1
			c0.03,0,0.05,0.01,0.07,0.02c0.02,0.01,0.04,0.03,0.05,0.06c0.01,0.03,0.02,0.06,0.03,0.1c0.01,0.04,0.01,0.09,0.01,0.15
			c0,0.11-0.01,0.2-0.04,0.25c-0.03,0.05-0.07,0.08-0.11,0.08h-1.1v2.38c0,0.29,0.04,0.52,0.13,0.67c0.09,0.15,0.24,0.23,0.47,0.23
			c0.07,0,0.14-0.01,0.19-0.02c0.06-0.01,0.11-0.03,0.15-0.04s0.08-0.03,0.11-0.05c0.03-0.01,0.06-0.02,0.09-0.02
			c0.02,0,0.03,0,0.04,0.01c0.01,0.01,0.03,0.02,0.03,0.05c0.01,0.02,0.01,0.05,0.02,0.09C111.95,122.99,111.96,123.04,111.96,123.1
			z"/>
	</g>
</g>
</svg>
